<svg width="38" height="38" viewBox="0 0 38 38" fill="none" xmlns="http://www.w3.org/2000/svg">
<g clip-path="url(#clip0_1150_231)">
<path d="M4.56727 0.0322266C2.04333 0.0322266 0.000408339 2.07882 0 4.59704C0 7.11772 2.04292 9.16391 4.56768 9.16391C7.08549 9.16391 9.13127 7.11772 9.13127 4.59704C9.13127 2.07841 7.08509 0.0322266 4.56727 0.0322266Z" fill="#8D5241"/>
<path d="M8.50356 12.6279H0.62793V37.967H8.50356V12.6279Z" fill="#8D5241"/>
<path d="M28.553 11.998C24.7219 11.998 22.1531 14.0985 21.1016 16.0904H20.9962V12.6281H13.4428H13.4424V37.9668H21.3111V25.4316C21.3111 22.1269 21.9403 18.9259 26.0376 18.9259C30.0761 18.9259 30.13 22.7055 30.13 25.6435V37.9663H37.9999V24.0681C37.9999 17.246 36.5278 11.998 28.553 11.998Z" fill="#8D5241"/>
</g>
<defs>
<clipPath id="clip0_1150_231">
<rect width="38" height="38" fill="white"/>
</clipPath>
</defs>
</svg>
